<svg width="407" height="33" viewBox="0 0 407 33" fill="none" xmlns="http://www.w3.org/2000/svg">
<g clip-path="url(#clip0_531_3157)">
<path d="M119.36 9.73975V23.3833H121.864V24.2793H111.849V23.3833H114.353V10.6869H112.412V9.73975H119.36Z" fill="white"/>
<path d="M20.6482 0.908632H19.748C19.7199 1.59977 19.2979 1.90694 18.5384 1.90694C16.9912 1.90694 14.7407 0.191895 12.0964 0.191895C4.55723 0.217492 0 6.9753 0 12.914C0 18.8527 4.33218 24.8169 11.6181 24.8169C16.0347 24.8169 17.6663 22.9227 18.8478 22.9227C19.6073 22.9227 19.748 23.537 19.748 24.305H20.7326V16.1137H19.748L19.5229 17.24C19.0166 19.9534 16.7098 23.9466 11.9557 23.9466C7.76417 23.9466 6.1607 20.6445 6.1607 12.53C6.1607 4.00596 8.38305 1.13901 12.0964 1.13901C16.2879 1.13901 19.1572 5.41384 19.748 8.81834H20.6482V0.908632Z" fill="white"/>
<path d="M33.5322 20.3626C33.4478 22.1032 32.3788 23.5367 30.6628 23.5367C28.1873 23.5367 28.1029 21.6425 28.1029 20.209C28.1029 18.4683 28.328 17.3164 30.6628 17.0861L33.5322 16.8301V20.3882V20.3626ZM40.143 21.4633C40.143 22.308 39.5241 23.3063 39.1022 23.3063C38.4551 23.3063 38.3145 22.692 38.3145 21.6681V14.0911C38.3145 10.3283 34.4324 9.40674 30.7191 9.40674C27.0058 9.40674 24.4459 11.0194 24.4459 12.8624C24.4459 14.0143 25.1773 15.0126 26.8089 15.0126C28.1873 15.0126 29.0312 14.1935 29.0312 13.0416C29.0312 11.3522 27.1183 11.3522 27.1183 11.301C27.1183 10.5586 29.2563 10.3027 30.4941 10.3027C33.2228 10.3027 33.5603 11.2242 33.5603 13.1952V15.9598L30.0158 16.2157C26.7245 16.4461 23.1237 17.2397 23.1237 20.6698C23.1237 23.5367 25.9368 24.6886 28.7499 24.6886C30.1565 24.6886 32.6601 24.2022 33.6166 22.6152C34.2636 23.9975 35.6139 24.6886 37.2455 24.6886C39.6085 24.6886 41.1276 23.4087 41.1276 21.4633H40.1993H40.143Z" fill="white"/>
<path d="M377.04 9.68848V23.3321H379.544V24.228H369.529V23.3321H372.033V10.6356H369.529V9.68848H377.04Z" fill="white"/>
<path d="M159.841 16.7276L165.833 1.0874H174.103V2.00892H171.712V23.383H174.075V24.3046H164.117V23.383H166.536V2.2649H166.451L158.012 24.279H157.028L148.419 1.85533H148.335V20.5673C148.335 23.2295 149.095 23.383 151.064 23.383H151.176V24.3046H144.903V23.383C146.985 23.383 147.35 22.2823 147.35 20.8745V2.03452H144.903V1.0874H153.989L159.841 16.7276Z" fill="white"/>
<path d="M179.898 15.4225V13.1955C179.898 10.9941 180.939 10.3029 182.177 10.3029C183.921 10.3029 184.455 11.3781 184.455 13.1955V15.4225H179.898ZM179.898 16.3184H189.885C189.856 12.7603 186.228 9.33023 182.43 9.40703C178.154 9.40703 174.469 12.7603 174.469 17.2143C174.469 21.6684 177.901 24.6889 182.542 24.6889C187.184 24.6889 189.209 22.1803 189.997 18.9294H189.013C188.225 22.0011 186.453 23.7418 183.611 23.7418C180.236 23.7418 179.87 21.3356 179.87 19.1086V16.344L179.898 16.3184Z" fill="white"/>
<path d="M330.399 15.3712V13.1442C330.399 10.9428 331.44 10.2517 332.678 10.2517C334.422 10.2517 334.956 11.3268 334.956 13.1442V15.3712H330.399ZM330.399 16.2672H340.386C340.358 12.7091 336.729 9.27896 332.931 9.35576C328.655 9.35576 324.97 12.7091 324.97 17.1631C324.97 21.6171 328.402 24.6376 333.043 24.6376C337.685 24.6376 339.711 22.129 340.498 18.8781H339.514C338.726 21.9499 336.954 23.6905 334.112 23.6905C330.737 23.6905 330.371 21.2843 330.371 19.0573V16.2927L330.399 16.2672Z" fill="white"/>
<path d="M189.941 1.13867V1.9578H192.444V23.3575H189.941V24.279H199.955V23.3575H197.452V1.13867H189.941Z" fill="white"/>
<path d="M200.659 1.13867V1.9578H203.162V23.3575H200.659V24.279H210.645V23.3575H208.142V1.13867H200.659Z" fill="white"/>
<path d="M222.151 20.286C222.151 22.769 221.026 23.7929 219.169 23.7929C217.312 23.7929 216.187 22.769 216.187 20.286V13.8098C216.187 11.3268 217.312 10.3029 219.169 10.3029C221.026 10.3029 222.151 11.3268 222.151 13.8098V20.286ZM227.805 17.0351C227.805 12.5299 223.979 9.38135 219.197 9.38135C214.415 9.38135 210.589 12.5043 210.589 17.0351C210.589 21.5659 214.443 24.6888 219.197 24.6888C223.951 24.6888 227.805 21.5659 227.805 17.0351Z" fill="white"/>
<path d="M253.798 1.88107H256.33V16.523C256.33 21.6425 260.212 24.7399 266.12 24.7399C272.787 24.7399 275.684 21.5401 275.684 16.7022V4.18486C275.684 2.26503 276.275 1.90666 277.569 1.90666H278.3V1.01074H271.943V1.88107H272.393C274.25 1.88107 274.503 2.39302 274.503 4.31285V17.0349C274.503 21.5145 271.436 23.5624 268.342 23.5624C263.053 23.5624 262.013 20.337 261.675 16.1134V1.88107H264.038V1.01074H253.798V1.88107Z" fill="white"/>
<path d="M316.559 24.6118H317.543L322.916 13.0672C324.013 10.917 324.576 10.6354 325.42 10.6098H325.758V9.71387H320.103V10.6354H320.778C321.819 10.6354 322.297 10.5842 322.297 11.4289C322.297 11.9665 322.1 12.4784 321.679 13.4255L319.203 18.6987L315.265 10.6354H317.262V9.71387H308.176V10.6354H309.892L316.559 24.6118Z" fill="white"/>
<path d="M356.927 24.6119H357.799C357.968 24.0744 358.361 23.8184 359.065 23.8184C359.993 23.8184 361.118 24.6119 363.172 24.6119C366.604 24.6119 368.967 21.8986 368.967 19.2108C368.967 15.192 365.929 14.8848 362.047 14.3984C360.021 14.1425 358.868 13.8609 358.868 12.4274C358.868 10.8659 360.359 10.226 362.3 10.226C365.028 10.226 366.069 11.8643 366.97 14.0145H367.813V9.33008H366.998C366.998 9.71404 366.632 10.0468 365.929 10.0468C364.775 10.0468 363.819 9.33008 362.159 9.33008C358.53 9.33008 356.758 12.1202 356.758 14.2448C356.758 18.4941 360.302 18.8524 363.059 19.1596C365.676 19.4668 366.604 19.6204 366.604 21.1306C366.604 22.8713 365 23.6648 363.059 23.6648C360.302 23.6648 358.418 21.489 357.771 19.0828H356.899V24.6119H356.927Z" fill="white"/>
<path d="M306.853 9.68848V23.3321H309.357V24.228H299.371V23.3321H301.874V10.6356H299.371V9.68848H306.853Z" fill="white"/>
<path d="M301.874 5.1322C301.874 6.38649 302.971 7.4104 304.378 7.4104C305.784 7.4104 306.882 6.41209 306.882 5.1322C306.882 3.85232 305.784 2.854 304.378 2.854C302.971 2.854 301.874 3.85232 301.874 5.1322Z" fill="white"/>
<path d="M372.033 5.1322C372.033 6.38649 373.13 7.4104 374.537 7.4104C375.943 7.4104 377.04 6.41209 377.04 5.1322C377.04 3.85232 375.943 2.854 374.537 2.854C373.13 2.854 372.033 3.85232 372.033 5.1322Z" fill="white"/>
<path d="M83.718 15.3966V13.1696C83.718 10.9682 84.7588 10.2771 85.9966 10.2771C87.7407 10.2771 88.2752 11.3522 88.2752 13.1696V15.3966H83.718ZM83.718 16.2925H93.7045C93.6764 12.7345 90.0474 9.30436 86.2498 9.38115C81.9738 9.38115 78.2887 12.7345 78.2887 17.1885C78.2887 21.6425 81.7207 24.663 86.3623 24.663C91.0039 24.663 93.0293 22.1544 93.817 18.9035H92.8324C92.0448 21.9752 90.2725 23.7159 87.4313 23.7159C84.0555 23.7159 83.6898 21.3097 83.6898 19.0827V16.3181L83.718 16.2925Z" fill="white"/>
<path d="M127.462 15.3966V13.1696C127.462 10.9682 128.503 10.2771 129.74 10.2771C131.034 10.2771 132.019 10.9682 132.019 13.1696V15.3966H127.462ZM127.462 16.2925H137.448C137.42 12.7345 133.791 9.30436 129.994 9.38115C125.718 9.38115 122.033 12.7345 122.033 17.1885C122.033 21.6425 125.464 24.663 130.106 24.663C134.748 24.663 136.773 22.1544 137.561 18.9035H136.576C135.789 21.9752 134.016 23.7159 131.175 23.7159C127.799 23.7159 127.434 21.3097 127.434 19.0827V16.3181L127.462 16.2925Z" fill="white"/>
<path d="M296.164 23.3321V14.4241C296.164 10.866 294.504 9.20215 291.044 9.20215C288.625 9.20215 286.149 10.482 285.164 12.3763V9.7141H277.653V10.61H280.157V23.3321H277.653V24.228H287.302V23.3321H285.164V14.6289C285.474 13.4002 287.19 10.5844 289.159 10.5844C290.481 10.5844 291.128 10.994 291.128 13.221V23.3321H289.075V24.228H298.639V23.3321H296.136H296.164Z" fill="white"/>
<path d="M235.288 9.79076V12.4529C236.273 10.5331 238.72 9.27881 241.168 9.27881C244.599 9.27881 246.287 10.9427 246.287 14.5008V23.4088H248.791V24.3047H239.226V23.4088H241.28V13.2977C241.28 11.0962 240.605 10.6611 239.311 10.6611C237.342 10.6611 235.626 13.4768 235.316 14.7055V23.4088H237.454V24.3047H227.805V23.4088H230.309V10.6611H227.805V9.76517H235.316L235.288 9.79076Z" fill="white"/>
<path d="M75.7569 23.3834V14.4754C75.7569 10.9173 74.0972 9.25342 70.6371 9.25342C68.2178 9.25342 65.7423 10.5333 64.7577 12.4275V9.76537H57.2467V10.6613H59.7504V23.3834H57.2467V24.2793H66.8957V23.3834H64.7577V14.6801C65.0671 13.4514 66.7831 10.6357 68.7523 10.6357C70.0745 10.6357 70.7215 11.0453 70.7215 13.2723V23.3834H68.6679V24.2793H78.2325V23.3834H75.7288H75.7569Z" fill="white"/>
<path d="M114.381 5.23425C114.381 6.48854 115.478 7.51245 116.885 7.51245C118.291 7.51245 119.388 6.51414 119.388 5.23425C119.388 3.95437 118.291 2.95605 116.885 2.95605C115.478 2.95605 114.381 3.95437 114.381 5.23425Z" fill="white"/>
<path d="M401.346 9.68851V10.6356C402.893 10.6356 403.568 10.7636 403.568 11.4036C403.568 11.9411 403.371 12.4531 402.949 13.4002L400.474 18.6733L396.535 10.6356H398.589V9.68851H386.099V2.62354H385.452C385.452 6.10483 382.835 9.71411 379.178 9.71411V10.6612H381.091V20.8491C381.091 23.9721 384.073 24.612 385.086 24.612C387.308 24.612 388.771 23.7929 389.896 22.0778L389.109 21.6939C388.687 22.2826 388.096 23.0761 387.196 23.0761C386.464 23.0761 386.099 22.6154 386.099 21.5147V10.6356H391.162L397.773 24.5352L395.494 29.45C395.494 29.45 395.354 29.6036 395.213 29.6036C395.072 29.6036 394.988 29.5268 394.932 29.4244C394.65 28.4773 393.694 27.7861 392.541 27.7861C391.162 27.7861 390.037 28.7844 390.037 30.0643C390.037 30.9602 390.6 31.7026 391.387 32.0865C391.387 32.0865 391.444 32.0865 391.472 32.1121C391.528 32.1121 391.556 32.1633 391.612 32.1633C391.894 32.2657 392.203 32.3425 392.513 32.3425C394.622 32.4961 395.691 31.0882 396.423 29.6548C396.592 29.322 396.732 28.9892 396.873 28.682C397.182 27.9909 397.745 26.7878 398.392 25.3799L399.011 24.0489L404.102 13.093C405.2 10.9428 405.622 10.6612 406.916 10.6612V9.71411H401.261L401.346 9.68851Z" fill="white"/>
<path d="M53.6178 9.22754C51.311 9.22754 49.5107 10.6866 48.8355 12.3249H48.7511V9.81629H41.3245V10.7378H43.8282V23.4087H41.3245V24.3046H52.155V23.4087H48.8355V16.3181C48.8355 14.1935 49.4544 12.0177 50.9735 10.8402C51.0579 10.789 51.1704 10.7634 51.2829 10.8146C51.3954 10.8658 51.4517 10.9938 51.4517 11.0962C51.3392 11.3522 51.2829 11.6593 51.2548 12.0433C51.1985 13.2464 52.2956 14.1935 53.7303 14.1935C55.4744 14.1935 56.4872 13.0416 56.4872 11.7873C56.4872 10.2003 55.3338 9.25314 53.6178 9.25314V9.22754Z" fill="white"/>
<path d="M108.164 10.3029C108.164 10.3029 108.333 10.2517 108.389 10.3029C108.445 10.3541 108.445 10.4053 108.389 10.4821C108.164 10.8148 108.079 11.25 108.248 11.6851C108.417 12.1203 108.839 12.4787 109.345 12.5811C110.386 12.7858 111.286 12.0947 111.286 11.1988C111.286 10.61 110.893 10.1749 110.442 9.9189C109.992 9.66292 109.43 9.53493 108.839 9.53493C107.883 9.53493 106.898 9.99569 106.167 10.5588C105.998 10.4565 105.829 10.3541 105.66 10.2517C104.676 9.71412 103.353 9.38135 101.637 9.38135C98.5993 9.38135 95.3361 11.1988 95.3361 14.1937C95.3361 16.0112 96.4332 17.419 98.3461 18.2126V18.2894C96.9396 18.443 94.7172 19.3389 94.7172 22.0778C94.7172 23.7161 95.5611 24.9704 97.0802 25.3799V25.4567C95.6174 25.8151 93.9577 27.1462 93.9577 28.7332C93.9577 31.165 97.1083 33.0593 101.131 33.0593C106.167 33.0593 109.458 29.9619 109.458 25.9431C109.458 22.7434 107.714 21.2843 104.169 21.3611H98.1492C97.249 21.3611 96.6301 21.3355 96.6301 20.4396C96.6301 19.6204 98.0085 18.7245 99.387 18.7245C99.6401 18.7245 100.034 18.9037 100.118 18.9293C100.568 19.0573 101.019 19.1341 101.609 19.1341C104.732 19.1341 108.051 17.5214 108.051 14.3985C108.051 13.4258 107.601 12.0947 106.729 11.2756C106.673 11.2244 106.673 11.1476 106.729 11.0964C107.067 10.8404 107.489 10.6356 107.686 10.5332C107.854 10.4565 107.967 10.4053 108.108 10.3541L108.164 10.3029ZM103.353 25.4567C106.982 25.4567 107.939 25.5847 107.939 27.6069C107.939 30.0131 104.704 32.2145 101.047 32.2145C97.7835 32.2145 96.2082 30.3971 96.1519 28.81C96.1519 27.351 96.9396 26.4039 97.9241 25.4567H103.353ZM103.972 14.1937C103.972 18.0334 102.988 18.1614 101.694 18.1614C100.231 18.1614 99.4714 17.9054 99.4714 14.0913C99.4714 11.4292 99.8089 10.2773 101.694 10.2773C103.41 10.2773 103.944 10.3797 103.972 14.1681V14.1937Z" fill="white"/>
<path d="M353.073 9.09961C350.766 9.09961 348.966 10.5587 348.291 12.1969H348.206V9.68836H340.78V10.6099H343.283V23.2808H340.78V24.1767H351.61V23.2808H348.291V16.1902C348.291 14.0656 348.909 11.9154 350.428 10.7123C350.513 10.6611 350.625 10.6355 350.738 10.6867C350.85 10.7379 350.907 10.8659 350.907 10.9682C350.822 11.2242 350.738 11.5314 350.71 11.9154C350.654 13.1185 351.751 14.0656 353.185 14.0656C354.929 14.0656 355.942 12.9137 355.942 11.6594C355.942 10.0723 354.789 9.12521 353.073 9.12521V9.09961Z" fill="white"/>
</g>
<defs>
<clipPath id="clip0_531_3157">
<rect width="407" height="32.7907" fill="white" transform="translate(0 0.217285)"/>
</clipPath>
</defs>
</svg>
